<svg width="349" height="113" viewBox="0 0 349 113" fill="none" xmlns="http://www.w3.org/2000/svg">
<rect width="349" height="113" rx="15" fill="white"/>
<path d="M97.8182 20.4063H31.8182C27.8994 20.4063 24.5994 23.7062 24.5994 27.625V77.125C24.5994 81.0438 27.8994 84.3438 31.8182 84.3438H46.4619V95.6875C46.4619 96.925 47.2869 98.1625 48.3182 98.575C48.7307 98.7813 49.1432 98.7813 49.5557 98.7813C50.3807 98.7813 51.2057 98.3688 51.8244 97.75L65.0244 84.3438H97.8182C101.737 84.3438 105.037 81.0438 105.037 77.125V27.625C105.037 23.7062 101.737 20.4062 97.8182 20.4063ZM98.8494 77.125C98.8494 77.7438 98.4369 78.1563 97.8182 78.1563H63.7869C62.9619 78.1563 62.1369 78.5688 61.5182 79.1875L52.8557 88.2625V81.25C52.8557 79.6 51.4119 78.1563 49.7619 78.1563H31.8182C31.1994 78.1563 30.7869 77.7438 30.7869 77.125V27.625C30.7869 27.0062 31.1994 26.5938 31.8182 26.5938H97.8182C98.4369 26.5938 98.8494 27.0062 98.8494 27.625V77.125Z" fill="#FFB00A"/>
<path d="M64.8182 54.4375H44.1932C42.5432 54.4375 41.0994 55.8812 41.0994 57.5312C41.0994 59.1812 42.5432 60.625 44.1932 60.625H64.8182C66.4682 60.625 67.9119 59.1812 67.9119 57.5312C67.9119 55.8812 66.4682 54.4375 64.8182 54.4375ZM80.2869 40H44.1932C42.5432 40 41.0994 41.4437 41.0994 43.0937C41.0994 44.7437 42.5432 46.1875 44.1932 46.1875H80.2869C81.9369 46.1875 83.3807 44.7437 83.3807 43.0937C83.3807 41.4437 81.9369 40 80.2869 40Z" fill="#FFB00A"/>
<path d="M215.916 21.7043V71.0473C215.916 74.1953 212.648 76.7516 208.623 76.7516H201.329C197.304 76.7516 194.036 74.1953 194.036 71.0473V21.7043C194.036 18.5562 190.768 16 186.743 16H133.612C129.587 16 126.318 18.5562 126.318 21.7043V91.2894C126.318 94.4375 129.587 96.9937 133.612 96.9937C137.637 96.9937 140.905 94.4375 140.905 91.2894V72.1554C140.905 69.0073 144.173 66.4511 148.198 66.4511H155.484C159.509 66.4511 162.777 69.0073 162.777 72.1554V91.2894C162.777 94.4375 166.046 96.9937 170.071 96.9937H178.403L237.297 97C241.323 97 244.591 94.4438 244.591 91.2957V41.9527C244.591 38.8047 247.859 36.2484 251.884 36.2484H259.17C263.195 36.2484 266.463 38.8047 266.463 41.9527V91.2957C266.463 94.4438 269.731 97 273.757 97H326.388C330.413 97 333.682 94.4438 333.682 91.2957V21.7043C333.682 18.5562 330.413 16 326.388 16H223.21C219.185 16 215.916 18.5562 215.916 21.7043ZM155.484 56.2513H148.198C144.173 56.2513 140.905 53.6951 140.905 50.547V31.8852C140.905 28.7371 144.173 26.1809 148.198 26.1809H155.484C159.509 26.1809 162.777 28.7371 162.777 31.8852V50.547C162.777 53.6951 159.509 56.2513 155.484 56.2513ZM297.231 71.041V41.9527C297.231 38.8047 300.499 36.2484 304.524 36.2484H310.771C314.796 36.2484 318.065 38.8047 318.065 41.9527V71.0473C318.065 74.1953 314.796 76.7516 310.771 76.7516H304.524C300.499 76.7516 297.231 74.1953 297.231 71.0473V71.041Z" fill="url(#paint0_linear_1_2)"/>
<defs>
<linearGradient id="paint0_linear_1_2" x1="230.004" y1="97" x2="230.004" y2="16" gradientUnits="userSpaceOnUse">
<stop stop-color="#FFDF41"/>
<stop offset="0.57" stop-color="#FFBD19"/>
<stop offset="1" stop-color="#FFA800"/>
</linearGradient>
</defs>
</svg>
